<svg width="24" height="24" viewBox="0 0 24 24" fill="none" xmlns="http://www.w3.org/2000/svg">
					<path d="M5.35709 5.14282C4.8456 5.14282 4.35506 5.34601 3.99338 5.70769C3.63171 6.06937 3.42852 6.5599 3.42852 7.07139V14.7857C3.42852 15.2972 3.63171 15.7877 3.99338 16.1494C4.35506 16.5111 4.8456 16.7143 5.35709 16.7143H18.6428C19.1543 16.7143 19.6448 16.5111 20.0065 16.1494C20.3682 15.7877 20.5714 15.2972 20.5714 14.7857V7.07139C20.5714 6.5599 20.3682 6.06937 20.0065 5.70769C19.6448 5.34601 19.1543 5.14282 18.6428 5.14282H5.35709ZM4.71423 7.07139C4.71423 6.9009 4.78196 6.73738 4.90252 6.61683C5.02308 6.49627 5.18659 6.42854 5.35709 6.42854H18.6428C18.8133 6.42854 18.9768 6.49627 19.0974 6.61683C19.2179 6.73738 19.2857 6.9009 19.2857 7.07139V14.7857C19.2857 14.9562 19.2179 15.1197 19.0974 15.2402C18.9768 15.3608 18.8133 15.4285 18.6428 15.4285H5.35709C5.18659 15.4285 5.02308 15.3608 4.90252 15.2402C4.78196 15.1197 4.71423 14.9562 4.71423 14.7857V7.07139ZM2.35709 17.5714C2.18659 17.5714 2.02308 17.6391 1.90252 17.7597C1.78196 17.8802 1.71423 18.0438 1.71423 18.2143C1.71423 18.3847 1.78196 18.5483 1.90252 18.6688C2.02308 18.7894 2.18659 18.8571 2.35709 18.8571H21.6428C21.8133 18.8571 21.9768 18.7894 22.0974 18.6688C22.2179 18.5483 22.2857 18.3847 22.2857 18.2143C22.2857 18.0438 22.2179 17.8802 22.0974 17.7597C21.9768 17.6391 21.8133 17.5714 21.6428 17.5714H2.35709Z" fill="#303030"></path>
				</svg>