<svg width="18" height="16" viewBox="0 0 18 16" fill="none" xmlns="http://www.w3.org/2000/svg">
					<path d="M15.7999 2.16672C14.9166 1.28106 13.7456 0.740507 12.4986 0.642698C11.2515 0.54489 10.0106 0.896278 8.99995 1.63339C7.93966 0.844754 6.61994 0.487149 5.30655 0.632588C3.99315 0.778026 2.78365 1.4157 1.92159 2.41721C1.05953 3.41872 0.608963 4.70966 0.660612 6.03007C0.712261 7.35048 1.26229 8.60228 2.19994 9.53339L7.37495 14.7167C7.80829 15.1432 8.39193 15.3822 8.99995 15.3822C9.60796 15.3822 10.1916 15.1432 10.6249 14.7167L15.7999 9.53339C16.7729 8.55444 17.319 7.23028 17.319 5.85006C17.319 4.46983 16.7729 3.14567 15.7999 2.16672ZM14.6249 8.38339L9.44995 13.5584C9.39106 13.6179 9.32097 13.6651 9.24373 13.6973C9.16649 13.7295 9.08363 13.7461 8.99995 13.7461C8.91626 13.7461 8.8334 13.7295 8.75616 13.6973C8.67892 13.6651 8.60883 13.6179 8.54995 13.5584L3.37494 8.35839C2.72141 7.69034 2.35545 6.79294 2.35545 5.85839C2.35545 4.92383 2.72141 4.02644 3.37494 3.35839C4.04091 2.70088 4.93909 2.3322 5.87495 2.3322C6.8108 2.3322 7.70898 3.70088 8.37495 4.35839C8.45241 4.4365 8.54458 4.49849 8.64613 4.5408C8.74768 4.58311 8.8566 4.60489 8.96661 4.60489C9.07662 4.60489 9.18554 4.58311 9.28709 4.5408C9.38864 4.49849 9.48081 4.4365 9.55828 4.35839C10.2242 3.70088 11.1224 2.3322 12.0583 2.3322C12.9941 2.3322 13.8923 2.70088 14.5583 3.35839C15.2208 4.01768 15.5988 4.91022 15.6112 5.84479C15.6237 6.77937 15.2696 7.68167 14.6249 8.35839V8.38339Z" fill="#303030"></path>
				</svg>