<svg width="194" height="40" viewBox="0 0 194 40" fill="none" xmlns="http://www.w3.org/2000/svg">
  <path d="M186.922 31.4287C185.398 31.4287 184.023 31.0901 182.795 30.4128C181.589 29.7144 180.626 28.762 179.907 27.5557C179.209 26.3493 178.859 24.9948 178.859 23.4922C178.859 21.9895 179.209 20.6456 179.907 19.4604C180.605 18.2541 181.547 17.3017 182.732 16.6033C183.938 15.9049 185.271 15.5557 186.731 15.5557C188.149 15.5557 189.398 15.8837 190.477 16.5398C191.577 17.1959 192.434 18.0953 193.048 19.2382C193.683 20.3811 194 21.6826 194 23.143C194 23.3969 193.979 23.6615 193.936 23.9366C193.915 24.1906 193.873 24.4763 193.81 24.7938H181.304V21.9366H192L190.699 23.0795C190.657 22.1483 190.477 21.3652 190.159 20.7303C189.842 20.0953 189.387 19.6086 188.794 19.2699C188.223 18.9313 187.514 18.762 186.668 18.762C185.779 18.762 185.007 18.9525 184.351 19.3334C183.695 19.7144 183.187 20.2541 182.827 20.9525C182.467 21.6297 182.288 22.4446 182.288 23.3969C182.288 24.3493 182.478 25.1853 182.859 25.9049C183.24 26.6244 183.779 27.1853 184.478 27.5874C185.176 27.9684 185.98 28.1588 186.89 28.1588C187.673 28.1588 188.392 28.0213 189.048 27.7461C189.726 27.471 190.297 27.0689 190.762 26.5398L192.984 28.7938C192.244 29.6615 191.344 30.3176 190.286 30.762C189.228 31.2065 188.107 31.4287 186.922 31.4287Z" fill="black"/>
  <path d="M171.188 31.4287C170.342 31.4287 169.527 31.3229 168.744 31.1112C167.961 30.8784 167.242 30.561 166.586 30.1588C165.93 29.7356 165.358 29.2276 164.872 28.635L167.094 26.4128C167.623 27.0266 168.226 27.4922 168.903 27.8096C169.601 28.1059 170.384 28.2541 171.252 28.2541C172.035 28.2541 172.627 28.1377 173.029 27.9049C173.431 27.6721 173.632 27.3334 173.632 26.889C173.632 26.4234 173.442 26.0636 173.061 25.8096C172.68 25.5557 172.183 25.344 171.569 25.1747C170.977 24.9842 170.342 24.7938 169.665 24.6033C169.009 24.4128 168.374 24.1588 167.76 23.8414C167.168 23.5028 166.681 23.0477 166.3 22.4763C165.919 21.9049 165.729 21.1641 165.729 20.2541C165.729 19.2805 165.951 18.4446 166.395 17.7461C166.861 17.0477 167.506 16.508 168.331 16.1271C169.178 15.7461 170.183 15.5557 171.347 15.5557C172.574 15.5557 173.653 15.7779 174.584 16.2223C175.537 16.6456 176.33 17.2911 176.965 18.1588L174.743 20.3811C174.299 19.8308 173.791 19.4181 173.22 19.143C172.648 18.8678 171.992 18.7303 171.252 18.7303C170.553 18.7303 170.014 18.8361 169.633 19.0477C169.252 19.2594 169.062 19.5662 169.062 19.9684C169.062 20.3916 169.252 20.7197 169.633 20.9525C170.014 21.1853 170.5 21.3863 171.093 21.5557C171.707 21.725 172.341 21.9155 172.997 22.1271C173.675 22.3176 174.309 22.5927 174.902 22.9525C175.516 23.2911 176.013 23.7567 176.394 24.3493C176.775 24.9207 176.965 25.6721 176.965 26.6033C176.965 28.0848 176.447 29.2594 175.41 30.1271C174.373 30.9948 172.966 31.4287 171.188 31.4287Z" fill="black"/>
  <path d="M147.091 31.1111L140.965 15.873H144.583L148.709 26.9524L147.63 26.9842L151.661 15.873H153.693L157.724 26.9842L156.645 26.9524L160.771 15.873H164.389L158.263 31.1111H156.232L152.106 20.5715H153.248L149.122 31.1111H147.091Z" fill="black"/>
  <path d="M132.117 31.4287C130.635 31.4287 129.292 31.0795 128.086 30.3811C126.879 29.6615 125.917 28.6985 125.197 27.4922C124.499 26.2858 124.15 24.9419 124.15 23.4604C124.15 21.9789 124.499 20.6456 125.197 19.4604C125.917 18.2752 126.879 17.3334 128.086 16.635C129.292 15.9155 130.635 15.5557 132.117 15.5557C133.619 15.5557 134.973 15.9049 136.18 16.6033C137.386 17.3017 138.338 18.2541 139.036 19.4604C139.756 20.6456 140.115 21.9789 140.115 23.4604C140.115 24.9419 139.756 26.2858 139.036 27.4922C138.338 28.6985 137.386 29.6615 136.18 30.3811C134.973 31.0795 133.619 31.4287 132.117 31.4287ZM132.117 28.0636C132.984 28.0636 133.746 27.8731 134.402 27.4922C135.079 27.0901 135.598 26.5398 135.957 25.8414C136.338 25.143 136.529 24.3493 136.529 23.4604C136.529 22.5715 136.338 21.7885 135.957 21.1112C135.576 20.434 135.058 19.9049 134.402 19.5239C133.746 19.1218 132.984 18.9207 132.117 18.9207C131.27 18.9207 130.508 19.1218 129.831 19.5239C129.175 19.9049 128.657 20.434 128.276 21.1112C127.916 21.7885 127.736 22.5715 127.736 23.4604C127.736 24.3493 127.916 25.143 128.276 25.8414C128.657 26.5398 129.175 27.0901 129.831 27.4922C130.508 27.8731 131.27 28.0636 132.117 28.0636Z" fill="black"/>
  <path d="M112.673 31.1112V15.8731H116.164V31.1112H112.673ZM116.164 22.635L114.958 22.0319C114.958 20.1059 115.381 18.5504 116.228 17.3652C117.095 16.1588 118.397 15.5557 120.132 15.5557C120.894 15.5557 121.581 15.6932 122.195 15.9684C122.809 16.2435 123.38 16.6879 123.909 17.3017L121.624 19.6509C121.348 19.3546 121.042 19.143 120.703 19.016C120.365 18.889 119.973 18.8255 119.529 18.8255C118.555 18.8255 117.751 19.1324 117.116 19.7461C116.482 20.3599 116.164 21.3229 116.164 22.635Z" fill="black"/>
  <path d="M95.9111 31.1111V27.9365H102.291C103.413 27.9365 104.28 27.5873 104.894 26.8889C105.507 26.1905 105.814 25.3863 105.814 24.4762C105.814 23.8625 105.677 23.291 105.402 22.7619C105.127 22.2328 104.725 21.8095 104.196 21.4921C103.667 21.1746 103.032 21.0159 102.291 21.0159H95.9111V17.8413H101.751C102.704 17.8413 103.465 17.5979 104.037 17.1111C104.608 16.6244 104.894 15.9048 104.894 14.9524C104.894 14 104.608 13.2805 104.037 12.7937C103.465 12.3069 102.704 12.0635 101.751 12.0635H95.9111V8.88892H101.847C103.349 8.88892 104.598 9.16405 105.592 9.71431C106.587 10.2646 107.327 10.9736 107.814 11.8413C108.301 12.709 108.544 13.6402 108.544 14.6349C108.544 15.799 108.216 16.8254 107.56 17.7143C106.925 18.6032 105.984 19.3228 104.735 19.873L105.021 18.7302C106.417 19.3016 107.507 20.1058 108.29 21.1429C109.073 22.1799 109.465 23.3969 109.465 24.7937C109.465 25.9365 109.179 26.9842 108.608 27.9365C108.057 28.8889 107.232 29.6614 106.132 30.254C105.053 30.8254 103.719 31.1111 102.132 31.1111H95.9111ZM93.4036 31.1111V8.88892H97.0538V31.1111H93.4036Z" fill="black"/>
  <path d="M86.4275 31.1111L82.0472 24.6667L81.4124 24.0953L75.5086 15.873H79.7301L83.6343 21.5238L84.2374 22.0635L90.6173 31.1111H86.4275ZM75.2229 31.1111L81.3807 22.5715L83.4121 25.0794L79.2858 31.1111H75.2229ZM84.5548 24.0318L82.4916 21.5556L86.3005 15.873H90.3316L84.5548 24.0318Z" fill="black"/>
  <path d="M69.3706 31.1111V15.873H72.8621V31.1111H69.3706ZM71.1164 13.0794C70.5239 13.0794 70.0266 12.8783 69.6246 12.4762C69.2437 12.0741 69.0532 11.5767 69.0532 10.9842C69.0532 10.3916 69.2437 9.89421 69.6246 9.49209C70.0266 9.08997 70.5239 8.88892 71.1164 8.88892C71.7301 8.88892 72.2273 9.08997 72.6082 9.49209C72.9891 9.89421 73.1796 10.3916 73.1796 10.9842C73.1796 11.5767 72.9891 12.0741 72.6082 12.4762C72.2273 12.8783 71.7301 13.0794 71.1164 13.0794Z" fill="black"/>
  <path d="M53.1661 22.7302V19.5556H58.7208C59.4826 19.5556 60.1491 19.4074 60.7205 19.1111C61.313 18.7937 61.7785 18.3598 62.1171 17.8096C62.4557 17.2381 62.6249 16.5715 62.6249 15.8096C62.6249 15.0476 62.4557 14.3916 62.1171 13.8413C61.7785 13.2699 61.313 12.836 60.7205 12.5397C60.1491 12.2222 59.4826 12.0635 58.7208 12.0635H53.1661V8.88892H58.9112C60.3078 8.88892 61.5563 9.17463 62.6567 9.74606C63.7782 10.3175 64.6564 11.1217 65.2912 12.1588C65.9472 13.1958 66.2752 14.4127 66.2752 15.8096C66.2752 17.2064 65.9472 18.4233 65.2912 19.4603C64.6564 20.4974 63.7782 21.3016 62.6567 21.873C61.5563 22.4445 60.3078 22.7302 58.9112 22.7302H53.1661ZM50.6586 31.1111V8.88892H54.3088V31.1111H50.6586Z" fill="black"/>
  <path fill-rule="evenodd" clip-rule="evenodd" d="M16.9702 34.2849C17.0268 34.2854 17.0834 34.2857 17.1402 34.2857C26.5926 34.2857 34.2803 26.5968 34.2803 17.1429C34.2803 7.68889 26.5926 0 17.1402 0C7.68768 0 0 7.68889 0 17.1429C0 20.3199 0.868175 23.2976 2.37975 25.8511C1.09414 27.3502 0.317414 29.2987 0.317414 31.4286C0.317414 36.1624 4.15437 40 8.8875 40C12.6193 40 15.794 37.6144 16.9702 34.2849ZM9.52231 17.1429C9.52231 12.9397 12.9376 9.52381 17.1402 9.52381C21.3427 9.52381 24.758 12.9397 24.758 17.1429C24.758 21.346 21.3427 24.7619 17.1402 24.7619C12.9376 24.7619 9.52231 21.346 9.52231 17.1429Z" fill="#FDE999"/>
</svg>
